# xmcd
#
# Track frame offsets: 
#        150
#        19243
#        42949
#        64098
#        81127
#        102544
#        111164
#        131483
#        150132
#        171555
#        187250
#
# Disc length: 2739 seconds
#
# Revision: 0
# Processed by: cddbd v1.5.2PL0 Copyright (c) Steve Scherf et al.
# Submitted via: ExactAudioCopy v0.95a5
#
DISCID=930ab10b
DTITLE=Devon Allmans Honeytribe - Space Age Blues
DYEAR=2010
DGENRE=Blues
TTITLE0=Could Get Dangerous
TTITLE1=Space Age Blues
TTITLE2=Salvation
TTITLE3=Sir Duke
TTITLE4=Endless Diamond
TTITLE5=Bleu Est Le Vide
TTITLE6=Warm In Wintertime
TTITLE7=New Pet Monkey
TTITLE8=I'm Ready
TTITLE9=Take Me To The Bridge
TTITLE10=Insh'Allah
EXTD=
EXTT0=
EXTT1=
EXTT2=
EXTT3=
EXTT4=
EXTT5=
EXTT6=
EXTT7=
EXTT8=
EXTT9=
EXTT10=
PLAYORDER=
